<svg width="149" height="29" viewBox="0 0 149 29" fill="none" xmlns="http://www.w3.org/2000/svg">
<path d="M11.54 23.3C9.42 23.3 7.5 22.84 5.78 21.92C4.08 20.98 2.74 19.69 1.76 18.05C0.8 16.41 0.32 14.56 0.32 12.5C0.32 10.44 0.81 8.59 1.79 6.95C2.77 5.31 4.11 4.03 5.81 3.11C7.53 2.17 9.45 1.7 11.57 1.7C13.29 1.7 14.86 2 16.28 2.6C17.7 3.2 18.9 4.07 19.88 5.21L17.36 7.58C15.84 5.94 13.97 5.12 11.75 5.12C10.31 5.12 9.02 5.44 7.88 6.08C6.74 6.7 5.85 7.57 5.21 8.69C4.57 9.81 4.25 11.08 4.25 12.5C4.25 13.92 4.57 15.19 5.21 16.31C5.85 17.43 6.74 18.31 7.88 18.95C9.02 19.57 10.31 19.88 11.75 19.88C13.97 19.88 15.84 19.05 17.36 17.39L19.88 19.79C18.9 20.93 17.69 21.8 16.25 22.4C14.83 23 13.26 23.3 11.54 23.3ZM29.2304 6.8C31.5904 6.8 33.3904 7.37 34.6304 8.51C35.8904 9.63 36.5204 11.33 36.5204 13.61V23H32.9804V21.05C32.5204 21.75 31.8604 22.29 31.0004 22.67C30.1604 23.03 29.1404 23.21 27.9404 23.21C26.7404 23.21 25.6904 23.01 24.7904 22.61C23.8904 22.19 23.1904 21.62 22.6904 20.9C22.2104 20.16 21.9704 19.33 21.9704 18.41C21.9704 16.97 22.5004 15.82 23.5604 14.96C24.6404 14.08 26.3304 13.64 28.6304 13.64H32.7704V13.4C32.7704 12.28 32.4304 11.42 31.7504 10.82C31.0904 10.22 30.1004 9.92 28.7804 9.92C27.8804 9.92 26.9904 10.06 26.1104 10.34C25.2504 10.62 24.5204 11.01 23.9204 11.51L22.4504 8.78C23.2904 8.14 24.3004 7.65 25.4804 7.31C26.6604 6.97 27.9104 6.8 29.2304 6.8ZM28.7204 20.48C29.6604 20.48 30.4904 20.27 31.2104 19.85C31.9504 19.41 32.4704 18.79 32.7704 17.99V16.13H28.9004C26.7404 16.13 25.6604 16.84 25.6604 18.26C25.6604 18.94 25.9304 19.48 26.4704 19.88C27.0104 20.28 27.7604 20.48 28.7204 20.48ZM50.213 6.8C51.773 6.8 53.163 7.14 54.383 7.82C55.623 8.5 56.593 9.46 57.293 10.7C57.993 11.94 58.343 13.37 58.343 14.99C58.343 16.61 57.993 18.05 57.293 19.31C56.593 20.55 55.623 21.51 54.383 22.19C53.163 22.87 51.773 23.21 50.213 23.21C48.053 23.21 46.343 22.49 45.083 21.05V28.82H41.333V6.98H44.903V9.08C45.523 8.32 46.283 7.75 47.183 7.37C48.103 6.99 49.113 6.8 50.213 6.8ZM49.793 20C51.173 20 52.303 19.54 53.183 18.62C54.083 17.7 54.533 16.49 54.533 14.99C54.533 13.49 54.083 12.28 53.183 11.36C52.303 10.44 51.173 9.98 49.793 9.98C48.893 9.98 48.083 10.19 47.363 10.61C46.643 11.01 46.073 11.59 45.653 12.35C45.233 13.11 45.023 13.99 45.023 14.99C45.023 15.99 45.233 16.87 45.653 17.63C46.073 18.39 46.643 18.98 47.363 19.4C48.083 19.8 48.893 20 49.793 20ZM66.8495 23.21C65.5495 23.21 64.2795 23.04 63.0395 22.7C61.7995 22.36 60.8095 21.93 60.0695 21.41L61.5095 18.56C62.2295 19.04 63.0895 19.43 64.0895 19.73C65.1095 20.01 66.1095 20.15 67.0895 20.15C69.3295 20.15 70.4495 19.56 70.4495 18.38C70.4495 17.82 70.1595 17.43 69.5795 17.21C69.0195 16.99 68.1095 16.78 66.8495 16.58C65.5295 16.38 64.4495 16.15 63.6095 15.89C62.7895 15.63 62.0695 15.18 61.4495 14.54C60.8495 13.88 60.5495 12.97 60.5495 11.81C60.5495 10.29 61.1795 9.08 62.4395 8.18C63.7195 7.26 65.4395 6.8 67.5995 6.8C68.6995 6.8 69.7995 6.93 70.8995 7.19C71.9995 7.43 72.8995 7.76 73.5995 8.18L72.1595 11.03C70.7995 10.23 69.2695 9.83 67.5695 9.83C66.4695 9.83 65.6295 10 65.0495 10.34C64.4895 10.66 64.2095 11.09 64.2095 11.63C64.2095 12.23 64.5095 12.66 65.1095 12.92C65.7295 13.16 66.6795 13.39 67.9595 13.61C69.2395 13.81 70.2895 14.04 71.1095 14.3C71.9295 14.56 72.6295 15 73.2095 15.62C73.8095 16.24 74.1095 17.12 74.1095 18.26C74.1095 19.76 73.4595 20.96 72.1595 21.86C70.8595 22.76 69.0895 23.21 66.8495 23.21ZM77.6989 2H81.5989V19.7H92.5789V23H77.6989V2ZM102.351 23.21C100.731 23.21 99.2714 22.86 97.9714 22.16C96.6714 21.46 95.6514 20.49 94.9114 19.25C94.1914 17.99 93.8314 16.57 93.8314 14.99C93.8314 13.41 94.1914 12 94.9114 10.76C95.6514 9.52 96.6714 8.55 97.9714 7.85C99.2714 7.15 100.731 6.8 102.351 6.8C103.991 6.8 105.461 7.15 106.761 7.85C108.061 8.55 109.071 9.52 109.791 10.76C110.531 12 110.901 13.41 110.901 14.99C110.901 16.57 110.531 17.99 109.791 19.25C109.071 20.49 108.061 21.46 106.761 22.16C105.461 22.86 103.991 23.21 102.351 23.21ZM102.351 20C103.731 20 104.871 19.54 105.771 18.62C106.671 17.7 107.121 16.49 107.121 14.99C107.121 13.49 106.671 12.28 105.771 11.36C104.871 10.44 103.731 9.98 102.351 9.98C100.971 9.98 99.8314 10.44 98.9314 11.36C98.0514 12.28 97.6114 13.49 97.6114 14.99C97.6114 16.49 98.0514 17.7 98.9314 18.62C99.8314 19.54 100.971 20 102.351 20ZM121.837 23.21C120.177 23.21 118.687 22.86 117.367 22.16C116.047 21.46 115.017 20.49 114.277 19.25C113.537 17.99 113.167 16.57 113.167 14.99C113.167 13.41 113.537 12 114.277 10.76C115.017 9.52 116.037 8.55 117.337 7.85C118.657 7.15 120.157 6.8 121.837 6.8C123.417 6.8 124.797 7.12 125.977 7.76C127.177 8.4 128.077 9.32 128.677 10.52L125.797 12.2C125.337 11.46 124.757 10.91 124.057 10.55C123.377 10.17 122.627 9.98 121.807 9.98C120.407 9.98 119.247 10.44 118.327 11.36C117.407 12.26 116.947 13.47 116.947 14.99C116.947 16.51 117.397 17.73 118.297 18.65C119.217 19.55 120.387 20 121.807 20C122.627 20 123.377 19.82 124.057 19.46C124.757 19.08 125.337 18.52 125.797 17.78L128.677 19.46C128.057 20.66 127.147 21.59 125.947 22.25C124.767 22.89 123.397 23.21 121.837 23.21ZM138.313 16.13L135.523 18.77V23H131.773V0.739999H135.523V14.18L143.293 6.98H147.793L141.103 13.7L148.423 23H143.863L138.313 16.13Z" fill="#2C97DD"/>
</svg>
