<svg width="25" height="24" viewBox="0 0 25 24" fill="none" xmlns="http://www.w3.org/2000/svg">
<path d="M21.3733 7.49521C21.383 7.68961 21.3867 7.88641 21.3867 8.08081C21.3867 14.0688 16.7698 20.9712 8.32768 20.9712C5.73412 20.9712 3.32294 20.2212 1.29114 18.9348C2.49293 19.0782 3.71157 18.9865 4.87742 18.6649C6.04328 18.3433 7.13348 17.7981 8.08571 17.0604C7.12807 17.0425 6.20003 16.7298 5.43133 16.1659C4.66263 15.602 4.0917 14.8151 3.79837 13.9152C4.48666 14.0422 5.19503 14.0156 5.87152 13.8372C4.83265 13.6293 3.89856 13.0733 3.22755 12.2635C2.55654 11.4536 2.18988 10.4397 2.1897 9.39361V9.33721C2.82709 9.68713 3.53994 9.88173 4.26893 9.90481C3.29604 9.26471 2.60734 8.28232 2.34342 7.15814C2.07949 6.03396 2.26022 4.85276 2.84873 3.85561C4.00117 5.25537 5.43907 6.40022 7.06905 7.2158C8.69902 8.03138 10.4846 8.49945 12.3098 8.58961C12.2309 8.25076 12.1913 7.90412 12.1919 7.55641C12.1919 6.96174 12.3106 6.37289 12.5412 5.8235C12.7718 5.27411 13.1099 4.77494 13.536 4.35449C13.9621 3.93405 14.468 3.60058 15.0248 3.37311C15.5815 3.14565 16.1782 3.02866 16.7808 3.02881C17.4087 3.0278 18.0302 3.15414 18.6067 3.39999C19.1831 3.64584 19.7023 4.00596 20.1318 4.45801C21.1595 4.25725 22.145 3.88556 23.0464 3.35881C22.7036 4.40786 21.9863 5.29828 21.028 5.86441C21.9378 5.75797 22.8264 5.5177 23.6641 5.15161C23.0487 6.06174 22.2728 6.85551 21.3733 7.49521Z" fill="#2C97DD"/>
</svg>
