<svg width="25" height="24" viewBox="0 0 25 24" fill="none" xmlns="http://www.w3.org/2000/svg">
<path d="M20.6707 1.20001H3.64779C2.31027 1.20001 1.21594 2.28001 1.21594 3.60001V20.4C1.21594 21.7212 2.31027 22.8 3.64779 22.8H12.1592V14.4H9.7274V11.43H12.1592V8.97001C12.1592 6.37321 13.6329 4.54921 16.7384 4.54921L18.9307 4.55161V7.67761H17.4753C16.2666 7.67761 15.807 8.57281 15.807 9.40321V11.4312H18.9295L18.2389 14.4H15.807V22.8H20.6707C22.0082 22.8 23.1025 21.7212 23.1025 20.4V3.60001C23.1025 2.28001 22.0082 1.20001 20.6707 1.20001Z" fill="#2C97DD"/>
</svg>
