<svg width="25" height="24" viewBox="0 0 25 24" fill="none" xmlns="http://www.w3.org/2000/svg">
<path d="M21.3075 1.20001H4.28463C2.94711 1.20001 1.85278 2.28001 1.85278 3.60001V20.4C1.85278 21.7212 2.94711 22.8 4.28463 22.8H21.3075C22.6451 22.8 23.7394 21.7212 23.7394 20.4V3.60001C23.7394 2.28001 22.6451 1.20001 21.3075 1.20001ZM12.7766 18.6276C14.5627 18.6273 16.2754 17.9269 17.5382 16.6804C18.801 15.4339 19.5104 13.7434 19.5104 11.9808C19.5104 11.5752 19.4581 11.184 19.3852 10.8H21.3075V19.4592C21.3075 19.5682 21.2857 19.6762 21.2433 19.7769C21.2009 19.8776 21.1388 19.969 21.0605 20.046C20.9822 20.1229 20.8893 20.1838 20.7871 20.2252C20.6849 20.2666 20.5754 20.2877 20.4649 20.2872H5.12726C5.01678 20.2877 4.90729 20.2666 4.80508 20.2252C4.70286 20.1838 4.60994 20.1229 4.53165 20.046C4.45336 19.969 4.39123 19.8776 4.34884 19.7769C4.30645 19.6762 4.28463 19.5682 4.28463 19.4592V10.8H6.16809C6.09392 11.184 6.04164 11.5752 6.04164 11.9808C6.04196 13.7436 6.75164 15.434 8.01463 16.6805C9.27761 17.9269 10.9905 18.6273 12.7766 18.6276ZM8.56832 11.9808C8.56832 11.4354 8.67717 10.8953 8.88866 10.3915C9.10015 9.88756 9.41013 9.42972 9.80091 9.04406C10.1917 8.6584 10.6556 8.35247 11.1662 8.14375C11.6768 7.93504 12.224 7.82761 12.7766 7.82761C13.3293 7.82761 13.8765 7.93504 14.3871 8.14375C14.8977 8.35247 15.3616 8.6584 15.7524 9.04406C16.1431 9.42972 16.4531 9.88756 16.6646 10.3915C16.8761 10.8953 16.9849 11.4354 16.9849 11.9808C16.9849 13.0823 16.5416 14.1387 15.7524 14.9176C14.9631 15.6964 13.8927 16.134 12.7766 16.134C11.6605 16.134 10.5901 15.6964 9.80091 14.9176C9.0117 14.1387 8.56832 13.0823 8.56832 11.9808ZM20.4649 7.20001H18.5012C18.2782 7.19938 18.0646 7.11169 17.9069 6.95609C17.7493 6.8005 17.6604 6.58965 17.6598 6.36961V4.42921C17.6598 3.97081 18.0367 3.60001 18.5 3.60001H20.4637C20.9306 3.60001 21.3075 3.97081 21.3075 4.42921V6.36841C21.3075 6.82561 20.9306 7.20001 20.4649 7.20001Z" fill="#2C97DD"/>
</svg>
